<svg width="128" xmlns="http://www.w3.org/2000/svg" height="128" fill="none"><defs><clipPath id="a" class="frame-clip frame-clip-def"><rect rx="0" ry="0" width="128" height="128"/></clipPath></defs><g clip-path="url(#a)"><g class="fills"><rect rx="0" ry="0" width="128" height="128" class="frame-background"/></g><g class="frame-children"><defs><radialGradient id="b" cx=".516" cy="1.328" r=".954" gradientTransform="rotate(-.198 .516 1.328)"><stop offset="0" stop-color="#fb7500"/><stop offset="1" stop-color="#190000"/></radialGradient><pattern patternUnits="userSpaceOnUse" x="4.5" y="4.5" width="119" height="119" id="c"><rect width="119" height="119" style="fill: url(&quot;#b&quot;);"/></pattern></defs><circle cx="64" cy="64" fill="url(#c)" r="59.5" class="fills"/><g class="strokes"><g class="inner-stroke-shape"><defs><clipPath id="e"><use href="#d"/></clipPath><circle cx="64" cy="64" id="d" style="fill: none; stroke-width: 18.0476; stroke: rgb(231, 173, 0); stroke-opacity: 1;" r="59.5"/></defs><use href="#d" clip-path="url('#e')"/></g></g><g style="fill: rgb(0, 0, 0);"><defs><radialGradient id="f" cx=".465" cy="1.134" r=".904" gradientTransform="rotate(-1.394 .465 1.134)"><stop offset="0" stop-color="#fff"/><stop offset="1" stop-color="#ffe7cf"/></radialGradient><pattern patternUnits="userSpaceOnUse" x="37.236" y="27.549" width="53.527" height="71.392" id="g"><rect width="53.527" height="71.392" style="fill: url(&quot;#f&quot;);"/></pattern></defs><path d="M37.236 98.941V77.137c0-1.227.266-2.392.796-3.496.531-1.104 1.27-1.994 2.215-2.668l3.68-2.668c.391 5.152 1.004 9.537 1.84 13.156.837 3.618 2.147 7.636 3.931 12.052Zm17.48-7.36c-1.951-4.048-3.401-8.342-4.349-12.88-.948-4.539-1.422-9.231-1.422-14.076 0-7.667 1.381-14.888 4.142-21.665C55.848 36.184 59.486 31.047 64 27.549c4.516 3.496 8.155 8.633 10.916 15.411 2.761 6.779 4.141 14 4.139 21.665 0 4.784-.474 9.43-1.422 13.94a59.457 59.457 0 0 1-4.349 13.016ZM64 65.821c1.84 0 3.416-.72 4.727-2.161 1.312-1.44 1.966-3.173 1.964-5.199-.002-2.027-.657-3.759-1.964-5.197-1.307-1.437-2.883-2.159-4.727-2.163-1.844-.005-3.419.716-4.724 2.163-1.305 1.448-1.96 3.18-1.967 5.197-.007 2.016.649 3.75 1.967 5.199 1.318 1.45 2.893 2.17 4.724 2.161Zm26.764 33.12-12.462-5.428c1.784-4.416 3.094-8.434 3.931-12.052.836-3.619 1.449-8.004 1.84-13.156l3.68 2.668c.948.674 1.687 1.564 2.218 2.668a7.934 7.934 0 0 1 .793 3.496Z" fill="url(#g)" class="fills"/></g></g></g></svg>