<svg width="128" xmlns="http://www.w3.org/2000/svg" height="128" fill="none"><defs><clipPath id="a" class="frame-clip frame-clip-def"><rect rx="0" ry="0" width="128" height="128"/></clipPath></defs><g clip-path="url(#a)"><g class="fills"><rect rx="0" ry="0" width="128" height="128" class="frame-background"/></g><g class="frame-children"><defs><radialGradient id="b" cx=".516" cy="1.328" r=".954" gradientTransform="rotate(-.198 .516 1.328)"><stop offset="0" stop-color="#fb7500"/><stop offset="1" stop-color="#190000"/></radialGradient><pattern patternUnits="userSpaceOnUse" x="0" y="0" width="128" height="128" id="c"><rect width="128" height="128" style="fill: url(&quot;#b&quot;);"/></pattern></defs><circle cx="64" cy="64" fill="url(#c)" r="64" class="fills"/><g style="fill: rgb(0, 0, 0);"><defs><radialGradient id="d" cx=".465" cy="1.134" r=".904" gradientTransform="rotate(-1.394 .465 1.134)"><stop offset="0" stop-color="#fff"/><stop offset="1" stop-color="#ffe7cf"/></radialGradient><pattern patternUnits="userSpaceOnUse" x="30.333" y="15.025" width="67.333" height="89.725" id="e"><rect width="67.333" height="89.725" style="fill: url(&quot;#d&quot;);"/></pattern></defs><path d="M30.333 104.75V77.347c0-1.542.334-3.006 1.002-4.394.668-1.387 1.596-2.505 2.786-3.353l4.629-3.353c.491 6.475 1.262 11.986 2.315 16.534 1.052 4.548 2.7 9.597 4.944 15.147Zm21.989-9.25c-2.455-5.088-4.279-10.483-5.471-16.188-1.192-5.704-1.789-11.601-1.789-17.69 0-9.636 1.737-18.711 5.21-27.228 3.474-8.516 8.05-14.972 13.728-19.369 5.681 4.394 10.259 10.85 13.732 19.369 3.473 8.52 5.208 17.596 5.206 27.228 0 6.012-.597 11.852-1.789 17.519A74.608 74.608 0 0 1 75.678 95.5ZM64 63.125c2.315 0 4.297-.905 5.946-2.715 1.65-1.81 2.473-3.988 2.471-6.535-.003-2.547-.827-4.724-2.471-6.53-1.644-1.807-3.626-2.714-5.946-2.72-2.32-.006-4.301.9-5.942 2.72-1.641 1.819-2.466 3.995-2.475 6.53-.008 2.534.817 4.713 2.475 6.535 1.658 1.822 3.639 2.727 5.942 2.715Zm33.667 41.625-15.676-6.822c2.244-5.55 3.892-10.599 4.944-15.147 1.053-4.548 1.824-10.059 2.315-16.534l4.629 3.353c1.193.848 2.123 1.966 2.79 3.353.668 1.388 1 2.852.998 4.394Z" fill="url(#e)" class="fills"/></g></g></g></svg>