<svg width="128" xmlns="http://www.w3.org/2000/svg" height="128" fill="none"><defs><clipPath id="a" class="frame-clip frame-clip-def"><rect rx="0" ry="0" width="128" height="128"/></clipPath></defs><g clip-path="url(#a)"><g class="fills"><rect rx="0" ry="0" width="128" height="128" class="frame-background"/></g><g class="frame-children"><defs><radialGradient id="b" cx=".516" cy="1.328" r=".954" gradientTransform="rotate(-.198 .516 1.328)"><stop offset="0" stop-color="#fb7500"/><stop offset="1" stop-color="#190000"/></radialGradient><pattern patternUnits="userSpaceOnUse" x="0" y="0" width="128" height="128" id="c"><rect width="128" height="128" style="fill: url(&quot;#b&quot;);"/></pattern></defs><circle cx="64" cy="64" fill="url(#c)" r="64" class="fills"/><g style="fill: rgb(0, 0, 0);"><defs><radialGradient id="d" cx=".465" cy="1.134" r=".904" gradientTransform="rotate(-1.394 .465 1.134)"><stop offset="0" stop-color="#fff"/><stop offset="1" stop-color="#ffe7cf"/></radialGradient><pattern patternUnits="userSpaceOnUse" x="35.212" y="24.792" width="57.576" height="76.792" id="e"><rect width="57.576" height="76.792" style="fill: url(&quot;#d&quot;);"/></pattern></defs><path d="M35.212 101.583V78.13c0-1.319.286-2.573.857-3.76.571-1.188 1.365-2.144 2.382-2.87l3.958-2.87c.42 5.542 1.08 10.259 1.979 14.151.9 3.893 2.309 8.214 4.228 12.964Zm18.802-7.916c-2.099-4.354-3.658-8.973-4.678-13.855-1.019-4.881-1.529-9.928-1.529-15.14 0-8.247 1.485-16.014 4.455-23.303 2.97-7.288 6.882-12.814 11.738-16.577 4.858 3.76 8.772 9.286 11.742 16.577 2.97 7.291 4.454 15.059 4.451 23.303 0 5.146-.51 10.144-1.529 14.994a63.966 63.966 0 0 1-4.678 14.001ZM64 65.958c1.979 0 3.674-.774 5.085-2.323 1.41-1.549 2.114-3.414 2.112-5.593-.002-2.18-.707-4.043-2.112-5.589-1.406-1.547-3.101-2.323-5.085-2.328-1.984-.005-3.678.771-5.081 2.328-1.403 1.556-2.109 3.419-2.116 5.589-.007 2.169.698 4.033 2.116 5.593 1.418 1.559 3.111 2.334 5.081 2.323Zm28.788 35.625-13.404-5.838c1.919-4.75 3.328-9.071 4.228-12.964.899-3.892 1.559-8.609 1.979-14.151l3.958 2.87c1.02.726 1.815 1.682 2.386 2.87a8.537 8.537 0 0 1 .853 3.76Z" fill="url(#e)" class="fills"/></g></g></g></svg>