<svg width="128" xmlns="http://www.w3.org/2000/svg" height="128" fill="none"><defs><clipPath id="a" class="frame-clip frame-clip-def"><rect rx="0" ry="0" width="128" height="128"/></clipPath></defs><g clip-path="url(#a)"><g class="fills"><rect rx="0" ry="0" width="128" height="128" class="frame-background"/></g><g class="frame-children"><defs><radialGradient id="b" cx=".516" cy="1.328" r=".954" gradientTransform="rotate(-.198 .516 1.328)"><stop offset="0" stop-color="#fb7500"/><stop offset="1" stop-color="#190000"/></radialGradient><pattern patternUnits="userSpaceOnUse" x="12.5" y="12.5" width="103" height="103" id="c"><rect width="103" height="103" style="fill: url(&quot;#b&quot;);"/></pattern></defs><circle cx="64" cy="64" fill="url(#c)" r="51.5" class="fills"/><g class="strokes"><g class="inner-stroke-shape"><defs><clipPath id="e"><use href="#d"/></clipPath><circle cx="64" cy="64" id="d" style="fill: none; stroke-width: 18.0476; stroke: rgb(255, 248, 230); stroke-opacity: 1;" r="51.5"/></defs><use href="#d" clip-path="url('#e')"/></g></g><g style="fill: rgb(0, 0, 0);"><defs><radialGradient id="f" cx=".465" cy="1.134" r=".904" gradientTransform="rotate(-1.394 .465 1.134)"><stop offset="0" stop-color="#fff"/><stop offset="1" stop-color="#ffe7cf"/></radialGradient><pattern patternUnits="userSpaceOnUse" x="40.835" y="32.45" width="46.33" height="61.793" id="g"><rect width="46.33" height="61.793" style="fill: url(&quot;#f&quot;);"/></pattern></defs><path d="M40.835 94.243V75.37c0-1.061.229-2.07.689-3.026.459-.955 1.098-1.725 1.917-2.309l3.185-2.309c.338 4.459.869 8.255 1.593 11.387.724 3.132 1.858 6.609 3.402 10.432Zm15.13-6.371c-1.69-3.503-2.944-7.219-3.765-11.148-.82-3.928-1.23-7.989-1.23-12.183 0-6.636 1.194-12.887 3.584-18.752 2.39-5.865 5.539-10.311 9.446-13.339 3.909 3.026 7.059 7.472 9.449 13.339 2.389 5.867 3.583 12.118 3.581 18.752 0 4.14-.41 8.162-1.23 12.065a51.405 51.405 0 0 1-3.765 11.266ZM64 65.576c1.593 0 2.956-.623 4.092-1.87 1.135-1.246 1.701-2.747 1.699-4.501-.002-1.754-.568-3.253-1.699-4.497-1.132-1.244-2.496-1.869-4.092-1.873-1.596-.004-2.959.62-4.089 1.873-1.129 1.253-1.697 2.752-1.702 4.497-.006 1.746.561 3.246 1.702 4.501 1.141 1.255 2.504 1.878 4.089 1.87Zm23.165 28.667-10.786-4.698c1.544-3.823 2.678-7.3 3.402-10.432.724-3.132 1.255-6.928 1.593-11.387l3.185 2.309c.821.584 1.461 1.354 1.92 2.309.459.956.688 1.965.686 3.026Z" fill="url(#g)" class="fills"/></g></g></g></svg>