<?xml version="1.0" encoding="UTF-8" standalone="no"?>
<!-- Created with Inkscape (http://www.inkscape.org/) -->

<svg
   width="152.98598mm"
   height="33.866665mm"
   viewBox="0 0 152.98598 33.866665"
   version="1.1"
   id="svg1"
   xml:space="preserve"
   inkscape:export-filename="logo-with-text.svg"
   inkscape:export-xdpi="33.205658"
   inkscape:export-ydpi="33.205658"
   xmlns:inkscape="http://www.inkscape.org/namespaces/inkscape"
   xmlns:sodipodi="http://sodipodi.sourceforge.net/DTD/sodipodi-0.dtd"
   xmlns="http://www.w3.org/2000/svg"
   xmlns:svg="http://www.w3.org/2000/svg"><sodipodi:namedview
     id="namedview1"
     pagecolor="#ffffff"
     bordercolor="#000000"
     borderopacity="0.25"
     inkscape:showpageshadow="2"
     inkscape:pageopacity="0.0"
     inkscape:pagecheckerboard="0"
     inkscape:deskcolor="#d1d1d1"
     inkscape:document-units="mm"
     inkscape:export-bgcolor="#ffffff00"><inkscape:page
       x="0"
       y="0"
       width="152.98598"
       height="33.866665"
       id="page2"
       margin="0"
       bleed="0" /></sodipodi:namedview><defs
     id="defs1"><clipPath
       id="a"
       class="frame-clip frame-clip-def"><rect
         rx="0"
         ry="0"
         width="128"
         height="128"
         id="rect1"
         x="0"
         y="0" /></clipPath><radialGradient
       id="b"
       cx="0.51599997"
       cy="1.3279999"
       r="0.954"
       gradientTransform="rotate(-0.198,0.516,1.328)"><stop
         offset="0"
         stop-color="#fb7500"
         id="stop2" /><stop
         offset="1"
         stop-color="#190000"
         id="stop3" /></radialGradient><pattern
       patternUnits="userSpaceOnUse"
       x="4.5"
       y="4.5"
       width="119"
       height="119"
       id="c"><rect
         width="119"
         height="119"
         style="fill: url(&quot;#b&quot;);"
         id="rect3" /></pattern><clipPath
       id="e"><use
         href="#d"
         id="use3" /></clipPath><circle
       cx="64"
       cy="64"
       id="d"
       style="fill:none;stroke:#e7ad00;stroke-width:18.0476;stroke-opacity:1"
       r="59.5" /><radialGradient
       id="f"
       cx="0.465"
       cy="1.1339999"
       r="0.90399998"
       gradientTransform="rotate(-1.394,0.465,1.134)"><stop
         offset="0"
         stop-color="#fff"
         id="stop5" /><stop
         offset="1"
         stop-color="#ffe7cf"
         id="stop6" /></radialGradient><pattern
       patternUnits="userSpaceOnUse"
       x="37.236"
       y="27.549"
       width="53.527"
       height="71.392"
       id="g"><rect
         width="53.527"
         height="71.392"
         style="fill: url(&quot;#f&quot;);"
         id="rect6" /></pattern></defs><g
     inkscape:label="Layer 1"
     inkscape:groupmode="layer"
     id="layer1"
     transform="translate(-16.39125,-131.56667)"><rect
       style="display:none;fill:#000000;fill-opacity:1;stroke:none;stroke-width:1.90206;stroke-linecap:round;stroke-dasharray:none;stroke-opacity:1;paint-order:stroke fill markers"
       id="rect10"
       width="154.87178"
       height="33.866669"
       x="16.391251"
       y="131.56667" /><g
       style="fill:none"
       id="g9"
       transform="matrix(0.26458333,0,0,0.26458333,16.39125,131.56667)"><g
         clip-path="url(#a)"
         id="g8"><g
           class="fills"
           id="g2"><rect
             rx="0"
             ry="0"
             width="128"
             height="128"
             class="frame-background"
             id="rect2"
             x="0"
             y="0" /></g><g
           class="frame-children"
           id="g7"><defs
             id="defs3" /><circle
             cx="64"
             cy="64"
             fill="url(#c)"
             r="59.5"
             class="fills"
             id="circle3" /><g
             class="strokes"
             id="g5"><g
               class="inner-stroke-shape"
               id="g4"><defs
                 id="defs4" /><use
                 href="#d"
                 clip-path="url(#e)"
                 id="use5" /></g></g><g
             style="fill:#000000"
             id="g6"><defs
               id="defs6" /><path
               d="M 37.236,98.941 V 77.137 c 0,-1.227 0.266,-2.392 0.796,-3.496 0.531,-1.104 1.27,-1.994 2.215,-2.668 l 3.68,-2.668 c 0.391,5.152 1.004,9.537 1.84,13.156 0.837,3.618 2.147,7.636 3.931,12.052 z m 17.48,-7.36 c -1.951,-4.048 -3.401,-8.342 -4.349,-12.88 -0.948,-4.539 -1.422,-9.231 -1.422,-14.076 0,-7.667 1.381,-14.888 4.142,-21.665 2.761,-6.776 6.399,-11.913 10.913,-15.411 4.516,3.496 8.155,8.633 10.916,15.411 2.761,6.779 4.141,14 4.139,21.665 0,4.784 -0.474,9.43 -1.422,13.94 A 59.457,59.457 0 0 1 73.284,91.581 Z M 64,65.821 c 1.84,0 3.416,-0.72 4.727,-2.161 1.312,-1.44 1.966,-3.173 1.964,-5.199 C 70.689,56.434 70.034,54.702 68.727,53.264 67.42,51.827 65.844,51.105 64,51.101 c -1.844,-0.005 -3.419,0.716 -4.724,2.163 -1.305,1.448 -1.96,3.18 -1.967,5.197 -0.007,2.016 0.649,3.75 1.967,5.199 1.318,1.45 2.893,2.17 4.724,2.161 z m 26.764,33.12 -12.462,-5.428 c 1.784,-4.416 3.094,-8.434 3.931,-12.052 0.836,-3.619 1.449,-8.004 1.84,-13.156 l 3.68,2.668 c 0.948,0.674 1.687,1.564 2.218,2.668 a 7.934,7.934 0 0 1 0.793,3.496 z"
               fill="url(#g)"
               class="fills"
               id="path6" /></g></g></g></g><path
       style="font-weight:bold;font-size:66.6667px;-inkscape-font-specification:'sans-serif Bold';white-space:pre;stroke:#ffffff;stroke-width:5.66929;stroke-linecap:round;stroke-dasharray:none;paint-order:stroke fill markers"
       d="m 294.45705,316.67445 -8.85417,-17.38282 h -7.77996 v 17.38282 h -9.79818 v -47.39586 h 17.64324 q 8.17058,0 12.82553,3.67839 4.6875,3.64583 4.6875,10.64454 0,5.14323 -2.27865,8.30078 -2.27864,3.15755 -6.1849,4.91537 l 10.25392,19.40105 v 0.45573 z m -16.63413,-39.4857 v 14.22527 h 7.84506 q 3.84115,0 5.76172,-1.92057 1.95313,-1.95313 1.95313,-5.14324 0,-3.28776 -1.88802,-5.20833 -1.88803,-1.95313 -5.82683,-1.95313 z m 46.77737,32.5521 q 2.57162,0 4.23178,-1.39974 1.66015,-1.43229 1.69271,-3.84115 h 8.85417 q -0.0651,5.59897 -4.29688,9.21225 -4.19922,3.61328 -10.31902,3.61328 -8.17057,0 -12.23959,-5.14323 -4.03646,-5.17578 -4.03646,-12.66277 v -0.91146 q 0,-7.45443 4.03646,-12.63021 4.03647,-5.17579 12.20704,-5.17579 6.47787,0 10.51433,3.71094 4.06901,3.71094 4.13412,10.0586 h -8.85417 q -0.0326,-2.57161 -1.5625,-4.36198 -1.52995,-1.82292 -4.39454,-1.82292 -4.10156,0 -5.37109,3.09245 -1.26954,3.0599 -1.26954,8.04037 0,4.06901 1.23698,7.16146 1.26954,3.0599 5.4362,3.0599 z m 30.1107,-43.06643 v 50.00003 h -9.44011 v -50.00003 z m 6.25,32.06382 q 0,-7.68229 4.36198,-12.79297 4.36199,-5.14324 12.3047,-5.14324 8.04037,0 12.3698,5.14324 4.32943,5.11068 4.32943,12.79297 v 0.6836 q 0,7.68229 -4.32943,12.79297 -4.32943,5.11068 -12.3047,5.11068 -7.91016,0 -12.27214,-4.98047 -4.32943,-4.98047 -4.45964,-12.50001 z m 9.44011,0.6836 q 0,4.29687 1.62761,7.32422 1.66015,2.99479 5.66406,2.99479 3.93881,0 5.56641,-2.99479 1.66016,-2.99479 1.66016,-8.00782 0,-4.19922 -1.66016,-7.25912 -1.6276,-3.09245 -5.63151,-3.09245 -3.97136,0 -5.59896,3.0599 -1.62761,3.0599 -1.62761,7.97527 z m 44.9219,-11.00261 q -4.00391,0 -5.95703,3.38541 v 24.86981 h -9.40756 v -35.22137 h 8.82162 l 0.32552,4.03646 q 3.77605,-4.68751 10.12371,-4.68751 4.98047,0 8.04036,2.96225 3.0599,2.96224 3.09245,10.31901 v 22.59116 h -9.44011 V 294.2135 q 0,-3.38542 -1.46484,-4.58985 -1.43229,-1.20442 -4.13412,-1.20442 z m 52.11591,22.52605 q -1.69271,2.40886 -5.14324,4.39453 -3.45052,1.98568 -8.59375,1.98568 -8.20313,0 -12.82553,-4.94792 -4.6224,-4.98047 -4.65495,-12.01172 v -1.36719 q 0,-7.97527 4.42709,-13.08595 4.45964,-5.11068 12.01172,-5.11068 7.58464,0 11.556,4.75261 3.97135,4.75261 3.97135,12.56511 v 4.00391 h -22.42839 q 0.48828,3.41797 2.70182,5.53386 2.21354,2.08333 5.82683,2.08333 5.37109,0 8.4961,-3.9388 z m -14.84376,-22.55861 q -2.99479,0 -4.6224,2.01823 -1.6276,2.01823 -2.11589,5.27344 h 13.08595 v -0.71614 q -0.0651,-2.83203 -1.59505,-4.6875 -1.4974,-1.88803 -4.75261,-1.88803 z m 62.7279,15.85288 q 0,-2.37631 -1.62761,-3.93881 -1.6276,-1.59505 -7.91016,-3.61328 -6.25,-2.05078 -10.80729,-5.27344 -4.78516,-3.35287 -4.78516,-9.53777 0,-5.95703 4.91536,-9.60287 4.91537,-3.64583 12.59767,-3.64583 7.87761,0 12.63021,4.13412 4.75261,4.10156 4.75261,10.48177 h -9.76563 q 0,-2.99479 -1.92057,-4.91537 -1.92058,-1.92057 -5.85938,-1.92057 -3.84115,0 -5.72917,1.62761 -1.85547,1.59505 -1.85547,3.8737 0,2.34375 2.40885,3.90625 2.40886,1.5625 6.9987,2.96224 7.77996,2.3763 11.75131,5.95703 4.00391,3.58073 4.00391,9.44011 0,6.21745 -4.6875,9.70053 -4.6875,3.45052 -12.50001,3.45052 -4.72005,0 -9.11459,-1.66016 -4.39453,-1.66015 -7.22656,-5.11068 -2.83204,-3.45052 -2.83204,-8.82161 h 9.79819 q 0,4.32942 2.57161,6.08724 2.60417,1.75781 6.80339,1.75781 3.77605,0 5.56641,-1.52995 1.82292,-1.52995 1.82292,-3.80859 z m 30.92451,-15.82032 q -4.10157,0 -5.95704,3.15755 v 25.09767 h -9.40755 v -50.00003 h 9.40755 v 18.58725 q 3.67839,-4.45964 9.40756,-4.45964 5.17579,0 8.36589,3.0599 3.22266,3.0599 3.25521,10.44923 v 22.36329 h -9.44011 v -22.26564 q 0,-3.41797 -1.46484,-4.6875 -1.46485,-1.30208 -4.16667,-1.30208 z m 43.5547,28.25522 -0.26042,-3.61328 q -3.45052,4.26432 -9.63542,4.26432 -5.17578,0 -8.43099,-3.02734 -3.22266,-3.02735 -3.25521,-9.92839 v -22.91668 h 9.40755 v 22.85157 q 0,2.92969 1.39974,4.16667 1.39974,1.20443 3.58074,1.20443 4.78515,0 6.60807,-3.35287 v -24.8698 h 9.44011 v 35.22137 z m 33.59376,-0.22787 q -2.63672,0.87891 -5.66407,0.87891 -4.6224,0 -7.35677,-2.40885 -2.73438,-2.40886 -2.73438,-8.00782 v -18.58725 h -5.17578 v -6.86849 h 5.17578 v -8.69141 h 9.40756 v 8.69141 h 5.98958 v 6.86849 h -5.98958 v 17.61069 q 0,2.21354 0.91146,2.92969 0.91146,0.71614 2.70182,0.71614 1.43229,0 2.73438,-0.26042 z m 22.52606,0 q -2.63672,0.87891 -5.66407,0.87891 -4.62239,0 -7.35677,-2.40885 -2.73438,-2.40886 -2.73438,-8.00782 v -18.58725 h -5.17578 v -6.86849 h 5.17578 v -8.69141 h 9.40756 v 8.69141 h 5.98959 v 6.86849 h -5.98959 v 17.61069 q 0,2.21354 0.91146,2.92969 0.91146,0.71614 2.70182,0.71614 1.4323,0 2.73438,-0.26042 z m 14.84377,-49.77216 v 50.00003 h -9.44011 v -50.00003 z m 37.69532,44.27086 q -1.69271,2.40886 -5.14323,4.39453 -3.45053,1.98568 -8.59376,1.98568 -8.20313,0 -12.82553,-4.94792 -4.62239,-4.98047 -4.65495,-12.01172 v -1.36719 q 0,-7.97527 4.42709,-13.08595 4.45964,-5.11068 12.01173,-5.11068 7.58463,0 11.55599,4.75261 3.97136,4.75261 3.97136,12.56511 v 4.00391 h -22.4284 q 0.48828,3.41797 2.70182,5.53386 2.21355,2.08333 5.82683,2.08333 5.3711,0 8.4961,-3.9388 z m -14.84376,-22.55861 q -2.99479,0 -4.6224,2.01823 -1.6276,2.01823 -2.11588,5.27344 h 13.08594 v -0.71614 q -0.0651,-2.83203 -1.59505,-4.6875 -1.4974,-1.88803 -4.75261,-1.88803 z"
       id="text9"
       transform="matrix(0.26458333,0,0,0.26458333,-16.382085,71.241681)"
       aria-label="Rclone Shuttle" /></g></svg>
